<svg width="20" height="20" viewBox="0 0 20 20" fill="none" xmlns="http://www.w3.org/2000/svg">
<path d="M18 3C17.9999 2.85211 17.967 2.70608 17.9037 2.57243C17.8404 2.43878 17.7482 2.32084 17.6338 2.22711C17.5194 2.13337 17.3856 2.06618 17.2422 2.03037C17.0987 1.99455 16.949 1.99101 16.804 2.02L6.804 4.02C6.57739 4.06529 6.37346 4.18767 6.22689 4.36633C6.08031 4.545 6.00014 4.76891 6 5V14.114C5.67217 14.0376 5.33661 13.9993 5 14C3.343 14 2 14.895 2 16C2 17.105 3.343 18 5 18C6.657 18 8 17.105 8 16V7.82L16 6.22V12.114C15.6722 12.0376 15.3366 11.9994 15 12C13.343 12 12 12.895 12 14C12 15.105 13.343 16 15 16C16.657 16 18 15.105 18 14V3Z" fill="#4F46FF"/>
</svg>
